<?xml version="1.0" encoding="utf-8"?>
<!-- Generator: Adobe Illustrator 18.0.0, SVG Export Plug-In . SVG Version: 6.00 Build 0)  -->
<!DOCTYPE svg PUBLIC "-//W3C//DTD SVG 1.1//EN" "http://www.w3.org/Graphics/SVG/1.1/DTD/svg11.dtd">
<svg version="1.1" id="Layer_1" xmlns:x="&ns_extend;" xmlns:i="&ns_ai;" xmlns:graph="&ns_graphs;"
	 xmlns="http://www.w3.org/2000/svg" xmlns:xlink="http://www.w3.org/1999/xlink" x="0px" y="0px" viewBox="0 7 40 26"
	 enable-background="new 0 7 40 26" xml:space="preserve">


<g id="Page-1">
	<g id="Mail">
		<path id="Oval-1" fill="#F5F5F5" d="M12,15v10l5.8-4.3L12,15z M12.5,15l7.5,6l7.5-6H12.5z M21.4,21.4L20,22.8l-1.4-1.4L12,25.7h16
			L21.4,21.4z M22.2,20.6L28,25V15L22.2,20.6z M22.2,20.6L28,25V15L22.2,20.6z M20,22.8l-1.4-1.4L12,25.7h16l-6.6-4.3L20,22.8z
			 M27.5,15h-15l7.5,6L27.5,15z M12,15v10l5.8-4.3L12,15z M22.2,20.6L28,25V15L22.2,20.6z M20,22.8l-1.4-1.4L12,25.7h16l-6.6-4.3
			L20,22.8z M27.5,15h-15l7.5,6L27.5,15z M12,15v10l5.8-4.3L12,15z M12,15v10l5.8-4.3L12,15z M12.5,15l7.5,6l7.5-6H12.5z M21.4,21.4
			L20,22.8l-1.4-1.4L12,25.7h16L21.4,21.4z M22.2,20.6L28,25V15L22.2,20.6z M22.2,20.6L28,25V15L22.2,20.6z M12,15v10l5.8-4.3L12,15
			z M21.4,21.4L20,22.8l-1.4-1.4L12,25.7h16L21.4,21.4z M12.5,15l7.5,6l7.5-6H12.5z"/>
	</g>
</g>
</svg>
