<?xml version="1.0" encoding="utf-8"?>
<!-- Generator: Adobe Illustrator 18.0.0, SVG Export Plug-In . SVG Version: 6.00 Build 0)  -->
<!DOCTYPE svg PUBLIC "-//W3C//DTD SVG 1.1//EN" "http://www.w3.org/Graphics/SVG/1.1/DTD/svg11.dtd">
<svg version="1.1" id="Layer_1" xmlns="http://www.w3.org/2000/svg" xmlns:xlink="http://www.w3.org/1999/xlink" x="0px" y="0px"
	 viewBox="0 0 32 32" enable-background="new 0 0 32 32" xml:space="preserve">
<g>
	<path fill="#D32F2F" d="M17.9,10.2c-1.5,0.5-2.4,1.9-2.2,3.4v0.6L15.1,14c-2.1-0.3-3.9-1.2-5.5-2.7l-0.8-0.8l-0.2,0.6
		c-0.4,1.3-0.1,2.6,0.7,3.4C9.9,15,9.7,15.1,9,14.8c-0.3-0.1-0.5-0.1-0.6-0.1c-0.1,0.1,0.2,1.1,0.4,1.5c0.3,0.6,0.9,1.1,1.6,1.5
		l0.6,0.3h-0.7c-0.6,0-0.7,0-0.6,0.3c0.2,0.8,1.1,1.5,2.2,1.9l0.7,0.2L12,20.8c-0.9,0.6-2,0.8-3.1,0.8c-0.5,0-0.9,0.1-0.9,0.1
		c0,0.1,1.4,0.8,2.2,1c2.4,0.8,5.4,0.4,7.5-0.8c1.5-0.9,3.1-2.7,3.8-4.5c0.4-0.9,0.8-2.7,0.8-3.5c0-0.6,0-0.6,0.7-1.3
		c0.3-0.3,0.8-0.8,0.8-0.9c0.1-0.2,0.1-0.2-0.5,0c-1,0.3-1.1,0.3-0.6-0.2c0.3-0.3,0.8-1,0.8-1.3c0,0-0.1,0-0.3,0.1
		c-0.2,0.1-0.7,0.3-1,0.4L21.4,11l-0.6-0.4c-0.3-0.2-0.8-0.4-1-0.5C19.3,10,18.4,10,17.9,10.2z"/>
</g>
</svg>
